<?xml version="1.0" encoding="utf-8"?>
<!-- Generator: Adobe Illustrator 24.0.1, SVG Export Plug-In . SVG Version: 6.00 Build 0)  -->
<svg version="1.1" id="Layer_1" xmlns="http://www.w3.org/2000/svg" xmlns:xlink="http://www.w3.org/1999/xlink" x="0px" y="0px"
	 viewBox="0 0 250 100" style="enable-background:new 0 0 250 100;" xml:space="preserve">
<style type="text/css">
	.st0{display:none;fill:none;}
	.st1{enable-background:new    ;}
	.st2{fill:#FFFFFF;}
	.st3{fill:none;}
</style>
<g id="Layer_2_1_">
	<path d="M50,71.6h7.8H195V86H54.6c0,0-4-3.5-4.6-4.1c-3.6-3.8-5.8-10-3.6-10.3C47.3,71.5,50,71.6,50,71.6z"/>
	<path d="M203.3,71.6c2.3,0.3,0,6.5-3.6,10.3c-0.6,0.6-4.6,4.1-4.6,4.1H54.7V71.6h137.2h7.8C199.7,71.6,202.4,71.5,203.3,71.6z"/>
	<circle cx="82" cy="90.1" r="5.8"/>
	<circle cx="176.5" cy="90.1" r="5.8"/>
	<polygon class="st0" points="52.1,71.6 58.2,72.1 196,72.1 196,86 51.4,86 55,77.9 	"/>
	<g class="st1">
		<path class="st2" d="M88.7,79.2c0,0.1,0,0.1,0,0.3c0,0.1,0.1,0.2,0.2,0.3c0.2,0.1,0.4,0.2,0.6,0.3c0.3,0.1,0.5,0.2,0.9,0.2
			c0.3,0.1,0.7,0.1,1,0.1c0.7,0,1.1-0.1,1.4-0.2s0.5-0.4,0.5-0.7c0-0.2-0.1-0.3-0.4-0.3c-0.3-0.1-0.6-0.1-1-0.2s-0.8-0.1-1.3-0.1
			s-0.9-0.1-1.3-0.3c-0.4-0.1-0.7-0.3-1-0.5s-0.4-0.6-0.4-1c0-0.3,0.1-0.6,0.2-0.9c0.2-0.3,0.4-0.5,0.6-0.7s0.6-0.3,1-0.4
			s0.8-0.2,1.3-0.2c0.4,0,0.9,0,1.2,0.1c0.4,0.1,0.7,0.1,1,0.2s0.5,0.1,0.7,0.2s0.3,0.1,0.4,0.1s0.2,0,0.2-0.1
			c0.1,0,0.1-0.1,0.1-0.1l0.1,0.1l-0.9,1.8l0.1-0.2v-0.1c0-0.1-0.1-0.2-0.3-0.2c-0.2-0.1-0.4-0.2-0.6-0.2c-0.3-0.1-0.6-0.1-0.9-0.2
			c-0.3,0-0.6-0.1-0.9-0.1c-0.6,0-1,0.1-1.2,0.2s-0.3,0.3-0.3,0.4s0.1,0.3,0.2,0.3c0.2,0.1,0.4,0.1,0.6,0.2c0.3,0,0.5,0.1,0.9,0.1
			c0.3,0,0.6,0.1,1,0.1c0.3,0,0.7,0.1,1,0.2s0.6,0.2,0.9,0.3c0.3,0.2,0.5,0.4,0.6,0.6c0.2,0.2,0.2,0.6,0.2,0.9s-0.1,0.6-0.2,0.8
			c-0.1,0.3-0.3,0.5-0.6,0.7s-0.7,0.4-1.1,0.5c-0.5,0.1-1.1,0.2-1.8,0.2c-0.5,0-1,0-1.4-0.1s-0.7-0.1-1-0.2s-0.5-0.1-0.7-0.2
			s-0.3-0.1-0.4-0.1s-0.1,0-0.1,0.1l-0.1,0.1h-0.2l1-2.3L88.7,79.2z"/>
		<path class="st2" d="M100.6,81.7c0.1,0,0.1,0,0.2,0s0.1-0.1,0.1-0.2c0,0,0-0.1-0.1-0.2s-0.1-0.2-0.2-0.4c-0.1-0.1-0.2-0.3-0.3-0.5
			c-0.1-0.2-0.2-0.3-0.3-0.5s-0.2-0.3-0.3-0.4c-0.1-0.1-0.1-0.2-0.2-0.3l-1.1,1.1v1.1c0,0.1,0,0.2,0.1,0.2s0.2,0,0.2,0.1v0.2h-2.4
			v-0.2c0.1,0,0.2,0,0.2,0c0.1,0,0.1-0.1,0.1-0.2v-4.9c0-0.1,0-0.2-0.1-0.2s-0.1,0-0.2,0v-0.2h2.4v0.2c-0.1,0-0.2,0-0.2,0.1
			c-0.1,0-0.1,0.1-0.1,0.2v2.4c0.1-0.1,0.3-0.2,0.5-0.4s0.4-0.3,0.6-0.5s0.4-0.3,0.6-0.5s0.4-0.3,0.5-0.5c0.2-0.1,0.3-0.3,0.4-0.4
			s0.1-0.2,0.1-0.2c0-0.1,0-0.2-0.1-0.2s-0.1,0-0.2-0.1v-0.2h2.5v0.2c-0.1,0-0.3,0.1-0.5,0.3c-0.2,0.2-0.4,0.4-0.7,0.6
			c-0.2,0.2-0.5,0.4-0.7,0.7c-0.2,0.2-0.4,0.4-0.6,0.5l2.2,3.2c0,0.1,0.1,0.1,0.1,0.1s0.1,0,0.2,0.1V82h-2.7V81.7z"/>
		<path class="st2" d="M109.5,81.7L109.5,81.7c0.1,0,0.2,0,0.2-0.1c0,0,0-0.1,0-0.2s-0.1-0.2-0.1-0.2s-0.1-0.2-0.1-0.3
			c0-0.1-0.1-0.2-0.1-0.2h-3c0,0.1,0,0.1-0.1,0.2c0,0.1-0.1,0.2-0.1,0.3c0,0.1-0.1,0.2-0.1,0.2c0,0.1-0.1,0.1-0.1,0.2s0,0.1,0.1,0.1
			h0.1v0.2h-2v-0.2c0.1,0,0.1,0,0.2,0s0.1-0.1,0.1-0.1c0.3-0.6,0.5-1.2,0.8-1.8c0.3-0.6,0.5-1.1,0.7-1.6s0.4-0.9,0.5-1.2
			s0.2-0.5,0.2-0.5c0-0.1-0.1-0.1-0.2-0.1v-0.2h2.7v0.2c-0.1,0-0.2,0.1-0.2,0.1s0,0.1,0.1,0.3c0.1,0.2,0.2,0.5,0.4,0.8
			s0.3,0.6,0.5,1s0.4,0.7,0.5,1.1c0.2,0.4,0.3,0.7,0.5,1.1c0.2,0.3,0.3,0.6,0.4,0.8l0.1,0.1c0.1,0,0.1,0,0.2,0v0.2h-2.2V81.7z
			 M107.8,77.5l-1.1,2.3h2.2L107.8,77.5z"/>
		<path class="st2" d="M118.7,76.1c0.1,0,0.1,0,0.2-0.1c0.1,0,0.1-0.1,0.1-0.2h0.2v1.9H119c0-0.1,0-0.2-0.1-0.2s-0.1-0.1-0.2-0.1
			h-1.9v4c0,0.1,0,0.2,0.1,0.2s0.1,0,0.2,0.1v0.2h-2.3v-0.2c0.1,0,0.1,0,0.2-0.1s0.1-0.1,0.1-0.2v-4h-1.9c-0.1,0-0.1,0-0.2,0.1
			c-0.1,0-0.1,0.1-0.1,0.2h-0.2v-1.9h0.2c0,0.1,0,0.2,0.1,0.2s0.1,0.1,0.2,0.1H118.7z"/>
		<path class="st2" d="M126.1,80.7c0.2,0,0.3-0.1,0.3-0.3h0.2v1.7h-0.1c0-0.1-0.1-0.2-0.1-0.2s-0.1,0-0.2,0h-5.8v-0.2
			c0.1,0,0.2,0,0.3-0.1s0.1-0.1,0.1-0.2v-4.9c0-0.1,0-0.2-0.1-0.2s-0.2,0-0.3-0.1V76h5.9c0.1,0,0.1,0,0.2-0.1c0.1,0,0.1-0.1,0.1-0.2
			h0.2v1.7h-0.2c0-0.1,0-0.2-0.1-0.3c-0.1,0-0.1-0.1-0.2-0.1h-3.8v1.1h2.4c0.1,0,0.1,0,0.2-0.1c0.1,0,0.1-0.1,0.1-0.2h0.2v1.7h-0.2
			c0-0.1,0-0.2-0.1-0.2s-0.1-0.1-0.2-0.1h-2.4v1.3h3.6V80.7z"/>
		<path class="st2" d="M133.1,79.2c0,0.1,0,0.1,0,0.3c0,0.1,0.1,0.2,0.2,0.3s0.4,0.2,0.6,0.3c0.3,0.1,0.5,0.2,0.9,0.2
			c0.3,0.1,0.7,0.1,1,0.1c0.7,0,1.1-0.1,1.4-0.2s0.5-0.4,0.5-0.7c0-0.2-0.1-0.3-0.4-0.3s-0.6-0.1-1-0.2s-0.8-0.1-1.3-0.1
			s-0.9-0.1-1.3-0.3c-0.4-0.1-0.7-0.3-1-0.5s-0.4-0.6-0.4-1c0-0.3,0.1-0.6,0.2-0.9c0.2-0.3,0.4-0.5,0.6-0.7c0.3-0.2,0.6-0.3,1-0.4
			s0.8-0.2,1.3-0.2c0.4,0,0.9,0,1.2,0.1c0.4,0.1,0.7,0.1,1,0.2s0.5,0.1,0.7,0.2s0.3,0.1,0.4,0.1c0.1,0,0.2,0,0.2-0.1
			c0.1,0,0.1-0.1,0.1-0.1l0.1,0.1l-0.9,1.8l-0.2-0.1V77c0-0.1-0.1-0.2-0.3-0.2c-0.2-0.1-0.4-0.2-0.6-0.2c-0.3-0.1-0.6-0.1-0.9-0.2
			c-0.3,0-0.6-0.1-0.9-0.1c-0.6,0-1,0.1-1.2,0.2s-0.3,0.3-0.3,0.4s0.1,0.3,0.2,0.3c0.2,0.1,0.4,0.1,0.6,0.2c0.3,0,0.5,0.1,0.9,0.1
			c0.3,0,0.6,0.1,1,0.1c0.3,0,0.7,0.1,1,0.2s0.6,0.2,0.9,0.3c0.2,0.2,0.5,0.4,0.6,0.6c0.2,0.2,0.2,0.6,0.2,0.9s-0.1,0.6-0.2,0.8
			c-0.1,0.3-0.3,0.5-0.6,0.7s-0.7,0.4-1.1,0.5s-1.1,0.2-1.8,0.2c-0.5,0-1,0-1.4-0.1s-0.7-0.1-1-0.2s-0.5-0.1-0.7-0.2
			s-0.3-0.1-0.4-0.1c-0.1,0-0.1,0-0.1,0.1l-0.1,0.1h-0.2l1-2.3L133.1,79.2z"/>
		<path class="st2" d="M143,81.4c0,0.1,0,0.2,0.1,0.2s0.2,0,0.3,0.1v0.2h-2.5v-0.2c0.1,0,0.2,0,0.3-0.1c0.1,0,0.1-0.1,0.1-0.2v-4.9
			c0-0.1,0-0.2-0.1-0.2s-0.2,0-0.3-0.1V76h2.5v0.2c-0.1,0-0.2,0-0.3,0.1c-0.1,0-0.1,0.1-0.1,0.2v1.6h2.9v-1.6c0-0.1,0-0.2-0.1-0.2
			s-0.2,0-0.3-0.1V76h2.5v0.2c-0.1,0-0.2,0-0.3,0.1c-0.1,0-0.1,0.1-0.1,0.2v4.9c0,0.1,0,0.2,0.1,0.2s0.2,0,0.3,0.1v0.2h-2.5v-0.2
			c0.1,0,0.2,0,0.3-0.1c0.1,0,0.1-0.1,0.1-0.2v-2H143V81.4z"/>
		<path class="st2" d="M152.8,76c0.4,0,0.8,0.1,1.2,0.2s0.8,0.3,1.1,0.5s0.6,0.5,0.8,0.9s0.3,0.8,0.3,1.3s-0.1,1-0.3,1.3
			c-0.2,0.4-0.5,0.7-0.8,0.9c-0.3,0.2-0.7,0.4-1.1,0.5c-0.4,0.1-0.8,0.2-1.2,0.2s-0.8-0.1-1.2-0.2s-0.8-0.3-1.1-0.5
			s-0.6-0.5-0.8-0.9s-0.3-0.8-0.3-1.3s0.1-1,0.3-1.3c0.2-0.4,0.5-0.7,0.8-0.9s0.7-0.4,1.1-0.5C151.9,76.1,152.4,76,152.8,76z
			 M152.8,77.4c-0.2,0-0.5,0-0.7,0.1s-0.4,0.2-0.6,0.3c-0.2,0.1-0.3,0.3-0.4,0.5c-0.1,0.2-0.1,0.4-0.1,0.7c0,0.2,0,0.5,0.1,0.7
			s0.2,0.4,0.4,0.5s0.4,0.2,0.6,0.3c0.2,0.1,0.4,0.1,0.7,0.1s0.5,0,0.7-0.1s0.4-0.2,0.6-0.3c0.2-0.1,0.3-0.3,0.4-0.5
			c0.1-0.2,0.1-0.4,0.1-0.7c0-0.2,0-0.5-0.1-0.7s-0.2-0.4-0.4-0.5s-0.4-0.2-0.6-0.3C153.2,77.4,153,77.4,152.8,77.4z"/>
		<path class="st2" d="M157.8,76.5c0-0.1,0-0.2-0.1-0.2s-0.1,0-0.1-0.1V76h3.4c0.3,0,0.6,0,0.9,0.1c0.3,0.1,0.6,0.1,0.8,0.3
			c0.2,0.1,0.4,0.3,0.5,0.6s0.2,0.5,0.2,0.9s-0.1,0.7-0.2,0.9c-0.1,0.2-0.3,0.4-0.5,0.6c-0.2,0.1-0.5,0.2-0.8,0.3s-0.6,0.1-0.9,0.1
			h-1.5v1.6c0,0.1,0,0.2,0.1,0.2s0.1,0,0.2,0.1v0.2h-2.2v-0.2c0,0,0.1,0,0.1-0.1s0.1-0.1,0.1-0.2V76.5z M160.8,78.7
			c0.4,0,0.6-0.1,0.8-0.2s0.2-0.3,0.2-0.6c0-0.3-0.1-0.5-0.2-0.6c-0.1-0.1-0.4-0.2-0.7-0.2h-1.3v1.5L160.8,78.7L160.8,78.7z"/>
	</g>
	<circle cx="73" cy="88" r="5.8"/>
	<circle cx="167" cy="88" r="5.8"/>
</g>
<g id="Layer_1_1_">
	<rect x="50" y="20.6" class="st3" width="194" height="80.8"/>
	<g class="st1">
		<path d="M89,5.1l15.5,52.3h6.1v13.1H86.1V57.4h6.1l-2-6.7H75.4l-1.8,6.7h5.9v13.1H54.7V57.4h6.4L76.6,5.1H89z M82.6,26.2L79.2,38
			h7.2C85.4,33.9,84.1,29.9,82.6,26.2z"/>
	</g>
	<g class="st1">
		<path d="M114,57.4h6V18.1h-6v-13h43V25h-12v-6.9h-12.5v13.2H145v13.1h-12.5v13h6.1v13.1H114v-7.1V57.4z"/>
		<path d="M158.4,15.9l9.8-10.8h17.4l9.8,10.8V25H183v-6.9h-12.5v39.3H183v-6.7h12.4v9.1l-9.8,10.7h-17.4l-9.8-10.7V15.9z"/>
	</g>
</g>
</svg>
